# xmcd
#
# Track frame offsets: 
#        150
#        27204
#        42742
#        61158
#        67400
#        79529
#        96214
#        104235
#        118555
#        150791
#        156331
#        166573
#        189126
#
# Disc length: 2699 seconds
#
# Revision: 1
# Processed by: cddbd v1.5.2PL0 Copyright (c) Steve Scherf et al.
# Submitted via: ExactAudioCopy v0.95b3
#
DISCID=a00a890d
DTITLE=Kati Szovak and Monarchia - Stafirung (Vol. 2)
DYEAR=2002
DGENRE=Folk
TTITLE0=A menyasszony szep virag
TTITLE1=Amari szan
TTITLE2=Ruszin asztalozo es kalacstanc
TTITLE3=Ajnc, cvaj, draj
TTITLE4=Ozenil som sa Boze moj
TTITLE5=Bura hajlo parta
TTITLE6=Fujd fel a dudadat
TTITLE7=Dunna - Duchna
TTITLE8=Uj stilus
TTITLE9=Nem megyunk mi innen el
TTITLE10=Domovia
TTITLE11=Mulatsag
TTITLE12=Vendegkuldo
EXTD=
EXTT0=
EXTT1=
EXTT2=
EXTT3=
EXTT4=
EXTT5=
EXTT6=
EXTT7=
EXTT8=
EXTT9=
EXTT10=
EXTT11=
EXTT12=
PLAYORDER=
